<?xml version="1.0" standalone="no"?><!DOCTYPE svg PUBLIC "-//W3C//DTD SVG 1.1//EN" "http://www.w3.org/Graphics/SVG/1.1/DTD/svg11.dtd"><svg t="1659193469562" class="icon" viewBox="0 0 1024 1024" version="1.1" xmlns="http://www.w3.org/2000/svg" p-id="2322" xmlns:xlink="http://www.w3.org/1999/xlink" width="200" height="200"><defs><style type="text/css"></style></defs><path d="M844.8 1024h-665.6c-42.3424 0-76.8-34.4576-76.8-76.8v-870.4C102.4 34.4576 136.8576 0 179.2 0h665.6c42.3424 0 76.8 34.4576 76.8 76.8v870.4c0 42.3424-34.4576 76.8-76.8 76.8zM179.2 51.2a25.6 25.6 0 0 0-25.6 25.6v870.4a25.6 25.6 0 0 0 25.6 25.6h665.6a25.6 25.6 0 0 0 25.6-25.6v-870.4a25.6 25.6 0 0 0-25.6-25.6h-665.6z" fill="#ffffff" p-id="2323"></path><path d="M537.6 921.6h-51.2a25.6 25.6 0 0 1 0-51.2h51.2a25.6 25.6 0 0 1 0 51.2zM793.6 819.2h-563.2a25.6 25.6 0 0 1-25.6-25.6v-665.6a25.6 25.6 0 0 1 25.6-25.6h563.2a25.6 25.6 0 0 1 25.6 25.6v665.6a25.6 25.6 0 0 1-25.6 25.6zM256 768h512V153.6H256v614.4z" fill="#ffffff" p-id="2324"></path></svg>